<mxfile host="app.diagrams.net" agent="Mozilla/5.0 (Windows NT 10.0; Win64; x64) AppleWebKit/537.36 (KHTML, like Gecko) Chrome/134.0.0.0 Safari/537.36" version="26.1.1">
  <diagram name="Page-1" id="aZELZ8jtba8PMwj1Mj3k">
    <mxGraphModel dx="1434" dy="780" grid="1" gridSize="10" guides="1" tooltips="1" connect="1" arrows="1" fold="1" page="1" pageScale="1" pageWidth="850" pageHeight="1100" background="none" math="0" shadow="0">
      <root>
        <mxCell id="0" />
        <mxCell id="1" parent="0" />
        <mxCell id="2BJKsQS-3MZF_sTSRitz-1" value="Start" style="shape=waypoint;sketch=0;fillStyle=solid;size=6;pointerEvents=1;points=[];fillColor=none;resizable=0;rotatable=0;perimeter=centerPerimeter;snapToPoint=1;strokeWidth=10;spacingTop=52;spacing=8;fontSize=15;" parent="1" vertex="1">
          <mxGeometry x="70" y="70" width="20" height="20" as="geometry" />
        </mxCell>
        <mxCell id="2BJKsQS-3MZF_sTSRitz-3" value="&lt;strong style=&quot;background-color: transparent; color: light-dark(rgb(0, 0, 0), rgb(255, 255, 255));&quot;&gt;Waiting for Serial Input&lt;/strong&gt;" style="ellipse;whiteSpace=wrap;html=1;aspect=fixed;rotation=0;" parent="1" vertex="1">
          <mxGeometry x="220" y="150" width="60" height="60" as="geometry" />
        </mxCell>
        <mxCell id="2BJKsQS-3MZF_sTSRitz-6" value="&lt;font style=&quot;font-size: 14px;&quot;&gt;GPIO18 = False&lt;/font&gt;" style="endArrow=classic;html=1;rounded=0;exitX=0.95;exitY=0.55;exitDx=0;exitDy=0;exitPerimeter=0;" parent="1" source="2BJKsQS-3MZF_sTSRitz-1" target="2BJKsQS-3MZF_sTSRitz-3" edge="1">
          <mxGeometry width="50" height="50" relative="1" as="geometry">
            <mxPoint x="400" y="290" as="sourcePoint" />
            <mxPoint x="450" y="240" as="targetPoint" />
            <Array as="points" />
            <mxPoint as="offset" />
          </mxGeometry>
        </mxCell>
        <mxCell id="2BJKsQS-3MZF_sTSRitz-7" value="Client" style="whiteSpace=wrap;html=1;aspect=fixed;" parent="1" vertex="1">
          <mxGeometry x="50" y="310" width="60" height="60" as="geometry" />
        </mxCell>
        <mxCell id="2BJKsQS-3MZF_sTSRitz-8" value="Server" style="whiteSpace=wrap;html=1;aspect=fixed;" parent="1" vertex="1">
          <mxGeometry x="50" y="420" width="60" height="60" as="geometry" />
        </mxCell>
        <mxCell id="2BJKsQS-3MZF_sTSRitz-9" value="RPi" style="text;html=1;align=center;verticalAlign=middle;whiteSpace=wrap;rounded=0;" parent="1" vertex="1">
          <mxGeometry x="50" y="30" width="60" height="30" as="geometry" />
        </mxCell>
        <mxCell id="2BJKsQS-3MZF_sTSRitz-10" value="&lt;b&gt;&quot;ON&quot;&lt;/b&gt;" style="ellipse;whiteSpace=wrap;html=1;aspect=fixed;" parent="1" vertex="1">
          <mxGeometry x="365" y="40" width="60" height="60" as="geometry" />
        </mxCell>
        <mxCell id="2BJKsQS-3MZF_sTSRitz-11" value="&lt;b&gt;&quot;OFF&quot;&lt;/b&gt;" style="ellipse;whiteSpace=wrap;html=1;aspect=fixed;" parent="1" vertex="1">
          <mxGeometry x="390" y="150" width="60" height="60" as="geometry" />
        </mxCell>
        <mxCell id="2BJKsQS-3MZF_sTSRitz-12" value="&lt;b&gt;&quot;EXIT&quot; or &quot;QUIT&quot;&lt;/b&gt;" style="ellipse;whiteSpace=wrap;html=1;aspect=fixed;" parent="1" vertex="1">
          <mxGeometry x="365" y="260" width="60" height="60" as="geometry" />
        </mxCell>
        <mxCell id="2BJKsQS-3MZF_sTSRitz-13" value="&lt;b&gt;LED&lt;/b&gt;" style="ellipse;whiteSpace=wrap;html=1;aspect=fixed;" parent="1" vertex="1">
          <mxGeometry x="610" y="150" width="60" height="60" as="geometry" />
        </mxCell>
        <mxCell id="2BJKsQS-3MZF_sTSRitz-15" value="" style="swimlane;startSize=0;" parent="1" vertex="1">
          <mxGeometry x="10" y="300" width="140" height="200" as="geometry">
            <mxRectangle x="10" y="210" width="50" height="40" as="alternateBounds" />
          </mxGeometry>
        </mxCell>
        <mxCell id="2BJKsQS-3MZF_sTSRitz-17" value="External Actor" style="text;html=1;align=center;verticalAlign=middle;whiteSpace=wrap;rounded=0;" parent="1" vertex="1">
          <mxGeometry x="35" y="260" width="90" height="30" as="geometry" />
        </mxCell>
        <mxCell id="2BJKsQS-3MZF_sTSRitz-19" value="&lt;font style=&quot;font-size: 18px;&quot;&gt;State Machine&lt;/font&gt;" style="text;html=1;align=center;verticalAlign=middle;whiteSpace=wrap;rounded=0;" parent="1" vertex="1">
          <mxGeometry x="343" width="165" height="30" as="geometry" />
        </mxCell>
        <mxCell id="2BJKsQS-3MZF_sTSRitz-21" style="edgeStyle=orthogonalEdgeStyle;rounded=0;orthogonalLoop=1;jettySize=auto;html=1;exitX=0.5;exitY=1;exitDx=0;exitDy=0;" parent="1" source="2BJKsQS-3MZF_sTSRitz-3" target="2BJKsQS-3MZF_sTSRitz-3" edge="1">
          <mxGeometry relative="1" as="geometry" />
        </mxCell>
        <mxCell id="2BJKsQS-3MZF_sTSRitz-22" value="End" style="shape=waypoint;sketch=0;fillStyle=solid;size=6;pointerEvents=1;points=[];fillColor=none;resizable=0;rotatable=0;perimeter=centerPerimeter;snapToPoint=1;strokeWidth=10;spacingTop=52;spacing=8;fontSize=15;" parent="1" vertex="1">
          <mxGeometry x="570" y="400" width="20" height="20" as="geometry" />
        </mxCell>
        <mxCell id="2BJKsQS-3MZF_sTSRitz-23" value="" style="endArrow=classic;html=1;rounded=0;exitX=1.029;exitY=0.1;exitDx=0;exitDy=0;exitPerimeter=0;entryX=0.35;entryY=1.017;entryDx=0;entryDy=0;entryPerimeter=0;" parent="1" source="2BJKsQS-3MZF_sTSRitz-15" target="2BJKsQS-3MZF_sTSRitz-3" edge="1">
          <mxGeometry width="50" height="50" relative="1" as="geometry">
            <mxPoint x="160" y="280" as="sourcePoint" />
            <mxPoint x="210" y="230" as="targetPoint" />
          </mxGeometry>
        </mxCell>
        <mxCell id="2BJKsQS-3MZF_sTSRitz-25" value="Provide output&lt;div&gt;on / off / exit&amp;nbsp;&lt;/div&gt;" style="edgeLabel;html=1;align=center;verticalAlign=middle;resizable=0;points=[];" parent="2BJKsQS-3MZF_sTSRitz-23" vertex="1" connectable="0">
          <mxGeometry x="-0.1156" y="-2" relative="1" as="geometry">
            <mxPoint x="26" y="2" as="offset" />
          </mxGeometry>
        </mxCell>
        <mxCell id="2BJKsQS-3MZF_sTSRitz-24" value="waiting for input" style="endArrow=classic;html=1;rounded=0;entryX=0.871;entryY=-0.01;entryDx=0;entryDy=0;entryPerimeter=0;exitX=0.05;exitY=0.733;exitDx=0;exitDy=0;exitPerimeter=0;" parent="1" source="2BJKsQS-3MZF_sTSRitz-3" target="2BJKsQS-3MZF_sTSRitz-15" edge="1">
          <mxGeometry x="0.0877" y="-31" width="50" height="50" relative="1" as="geometry">
            <mxPoint x="400" y="300" as="sourcePoint" />
            <mxPoint x="450" y="250" as="targetPoint" />
            <Array as="points" />
            <mxPoint as="offset" />
          </mxGeometry>
        </mxCell>
        <mxCell id="2BJKsQS-3MZF_sTSRitz-26" value="" style="endArrow=classic;html=1;rounded=0;entryX=0.25;entryY=1;entryDx=0;entryDy=0;exitX=0.25;exitY=0;exitDx=0;exitDy=0;" parent="1" source="2BJKsQS-3MZF_sTSRitz-8" target="2BJKsQS-3MZF_sTSRitz-7" edge="1">
          <mxGeometry width="50" height="50" relative="1" as="geometry">
            <mxPoint x="210" y="425" as="sourcePoint" />
            <mxPoint x="260" y="375" as="targetPoint" />
            <Array as="points" />
          </mxGeometry>
        </mxCell>
        <mxCell id="2BJKsQS-3MZF_sTSRitz-27" value="" style="endArrow=classic;html=1;rounded=0;entryX=0.75;entryY=0;entryDx=0;entryDy=0;exitX=0.75;exitY=1;exitDx=0;exitDy=0;" parent="1" source="2BJKsQS-3MZF_sTSRitz-7" target="2BJKsQS-3MZF_sTSRitz-8" edge="1">
          <mxGeometry width="50" height="50" relative="1" as="geometry">
            <mxPoint x="170" y="410" as="sourcePoint" />
            <mxPoint x="220" y="360" as="targetPoint" />
          </mxGeometry>
        </mxCell>
        <mxCell id="2BJKsQS-3MZF_sTSRitz-28" value="&lt;font style=&quot;font-size: 14px;&quot;&gt;if &quot;ON&quot;&lt;/font&gt;" style="endArrow=classic;html=1;rounded=0;entryX=0.033;entryY=0.717;entryDx=0;entryDy=0;entryPerimeter=0;" parent="1" source="2BJKsQS-3MZF_sTSRitz-3" target="2BJKsQS-3MZF_sTSRitz-10" edge="1">
          <mxGeometry width="50" height="50" relative="1" as="geometry">
            <mxPoint x="280" y="140" as="sourcePoint" />
            <mxPoint x="330" y="90" as="targetPoint" />
          </mxGeometry>
        </mxCell>
        <mxCell id="2BJKsQS-3MZF_sTSRitz-29" value="" style="endArrow=classic;html=1;rounded=0;entryX=0;entryY=0.5;entryDx=0;entryDy=0;exitX=1;exitY=0.5;exitDx=0;exitDy=0;" parent="1" source="2BJKsQS-3MZF_sTSRitz-3" target="2BJKsQS-3MZF_sTSRitz-11" edge="1">
          <mxGeometry width="50" height="50" relative="1" as="geometry">
            <mxPoint x="290" y="210" as="sourcePoint" />
            <mxPoint x="343" y="210" as="targetPoint" />
          </mxGeometry>
        </mxCell>
        <mxCell id="2BJKsQS-3MZF_sTSRitz-35" value="&lt;font style=&quot;font-size: 14px;&quot;&gt;if &quot;OFF&quot;&lt;/font&gt;" style="edgeLabel;html=1;align=center;verticalAlign=middle;resizable=0;points=[];" parent="2BJKsQS-3MZF_sTSRitz-29" vertex="1" connectable="0">
          <mxGeometry x="-0.2941" y="-1" relative="1" as="geometry">
            <mxPoint x="10" y="-1" as="offset" />
          </mxGeometry>
        </mxCell>
        <mxCell id="2BJKsQS-3MZF_sTSRitz-30" value="" style="endArrow=classic;html=1;rounded=0;entryX=-0.017;entryY=0.3;entryDx=0;entryDy=0;entryPerimeter=0;exitX=1;exitY=1;exitDx=0;exitDy=0;" parent="1" source="2BJKsQS-3MZF_sTSRitz-3" target="2BJKsQS-3MZF_sTSRitz-12" edge="1">
          <mxGeometry width="50" height="50" relative="1" as="geometry">
            <mxPoint x="280" y="280" as="sourcePoint" />
            <mxPoint x="330" y="230" as="targetPoint" />
          </mxGeometry>
        </mxCell>
        <mxCell id="2BJKsQS-3MZF_sTSRitz-36" value="&lt;font style=&quot;font-size: 14px;&quot;&gt;if &quot;EXIT&quot; or &quot;QUIT&quot;&lt;/font&gt;" style="edgeLabel;html=1;align=center;verticalAlign=middle;resizable=0;points=[];" parent="2BJKsQS-3MZF_sTSRitz-30" vertex="1" connectable="0">
          <mxGeometry x="-0.2629" y="-1" relative="1" as="geometry">
            <mxPoint x="16" y="10" as="offset" />
          </mxGeometry>
        </mxCell>
        <mxCell id="2BJKsQS-3MZF_sTSRitz-31" value="" style="endArrow=classic;html=1;rounded=0;entryX=0;entryY=0.5;entryDx=0;entryDy=0;exitX=1;exitY=0.5;exitDx=0;exitDy=0;" parent="1" source="2BJKsQS-3MZF_sTSRitz-11" target="2BJKsQS-3MZF_sTSRitz-13" edge="1">
          <mxGeometry width="50" height="50" relative="1" as="geometry">
            <mxPoint x="450" y="179.5" as="sourcePoint" />
            <mxPoint x="535" y="179.5" as="targetPoint" />
          </mxGeometry>
        </mxCell>
        <mxCell id="2BJKsQS-3MZF_sTSRitz-38" value="&lt;font style=&quot;font-size: 14px;&quot;&gt;GPIO18 = False&lt;/font&gt;" style="edgeLabel;html=1;align=center;verticalAlign=middle;resizable=0;points=[];" parent="2BJKsQS-3MZF_sTSRitz-31" vertex="1" connectable="0">
          <mxGeometry x="-0.264" y="1" relative="1" as="geometry">
            <mxPoint x="9" y="1" as="offset" />
          </mxGeometry>
        </mxCell>
        <mxCell id="2BJKsQS-3MZF_sTSRitz-32" value="" style="endArrow=classic;html=1;rounded=0;entryX=0;entryY=0.717;entryDx=0;entryDy=0;entryPerimeter=0;exitX=0.95;exitY=0.367;exitDx=0;exitDy=0;exitPerimeter=0;" parent="1" source="2BJKsQS-3MZF_sTSRitz-12" target="2BJKsQS-3MZF_sTSRitz-13" edge="1">
          <mxGeometry width="50" height="50" relative="1" as="geometry">
            <mxPoint x="430" y="280" as="sourcePoint" />
            <mxPoint x="540" y="190" as="targetPoint" />
          </mxGeometry>
        </mxCell>
        <mxCell id="2BJKsQS-3MZF_sTSRitz-37" value="&lt;font style=&quot;font-size: 14px;&quot;&gt;GPIO18 = False&lt;/font&gt;" style="edgeLabel;html=1;align=center;verticalAlign=middle;resizable=0;points=[];" parent="2BJKsQS-3MZF_sTSRitz-32" vertex="1" connectable="0">
          <mxGeometry x="-0.1276" y="1" relative="1" as="geometry">
            <mxPoint as="offset" />
          </mxGeometry>
        </mxCell>
        <mxCell id="2BJKsQS-3MZF_sTSRitz-33" value="" style="endArrow=classic;html=1;rounded=0;exitX=1;exitY=0.617;exitDx=0;exitDy=0;exitPerimeter=0;" parent="1" source="2BJKsQS-3MZF_sTSRitz-10" target="2BJKsQS-3MZF_sTSRitz-13" edge="1">
          <mxGeometry width="50" height="50" relative="1" as="geometry">
            <mxPoint x="457" y="60" as="sourcePoint" />
            <mxPoint x="550" y="137" as="targetPoint" />
          </mxGeometry>
        </mxCell>
        <mxCell id="2BJKsQS-3MZF_sTSRitz-39" value="&lt;font style=&quot;font-size: 14px;&quot;&gt;GPIO18 = True&lt;/font&gt;" style="edgeLabel;html=1;align=center;verticalAlign=middle;resizable=0;points=[];" parent="2BJKsQS-3MZF_sTSRitz-33" vertex="1" connectable="0">
          <mxGeometry x="-0.1584" y="2" relative="1" as="geometry">
            <mxPoint as="offset" />
          </mxGeometry>
        </mxCell>
        <mxCell id="2BJKsQS-3MZF_sTSRitz-34" value="" style="endArrow=classic;html=1;rounded=0;exitX=0.917;exitY=0.75;exitDx=0;exitDy=0;exitPerimeter=0;" parent="1" source="2BJKsQS-3MZF_sTSRitz-12" edge="1">
          <mxGeometry width="50" height="50" relative="1" as="geometry">
            <mxPoint x="435" y="310" as="sourcePoint" />
            <mxPoint x="560" y="400" as="targetPoint" />
          </mxGeometry>
        </mxCell>
        <mxCell id="2BJKsQS-3MZF_sTSRitz-40" value="&lt;font style=&quot;font-size: 14px;&quot;&gt;GPIO.cleanup()&lt;/font&gt;" style="edgeLabel;html=1;align=center;verticalAlign=middle;resizable=0;points=[];" parent="2BJKsQS-3MZF_sTSRitz-34" vertex="1" connectable="0">
          <mxGeometry x="-0.1575" relative="1" as="geometry">
            <mxPoint as="offset" />
          </mxGeometry>
        </mxCell>
        <mxCell id="2BJKsQS-3MZF_sTSRitz-47" value="" style="curved=1;endArrow=classic;html=1;rounded=0;entryX=0.65;entryY=1.05;entryDx=0;entryDy=0;entryPerimeter=0;exitX=0.967;exitY=0.717;exitDx=0;exitDy=0;exitPerimeter=0;" parent="1" source="2BJKsQS-3MZF_sTSRitz-13" target="2BJKsQS-3MZF_sTSRitz-3" edge="1">
          <mxGeometry width="50" height="50" relative="1" as="geometry">
            <mxPoint x="780" y="420" as="sourcePoint" />
            <mxPoint x="300" y="370" as="targetPoint" />
            <Array as="points">
              <mxPoint x="730" y="380" />
              <mxPoint x="560" y="500" />
              <mxPoint x="320" y="370" />
            </Array>
          </mxGeometry>
        </mxCell>
        <mxCell id="2BJKsQS-3MZF_sTSRitz-48" value="&lt;font style=&quot;font-size: 14px;&quot;&gt;Stay in current state&lt;/font&gt;&lt;div&gt;&lt;font size=&quot;3&quot;&gt;Waiting for input&lt;/font&gt;&lt;/div&gt;" style="edgeLabel;html=1;align=center;verticalAlign=middle;resizable=0;points=[];" parent="2BJKsQS-3MZF_sTSRitz-47" vertex="1" connectable="0">
          <mxGeometry x="-0.6989" y="-13" relative="1" as="geometry">
            <mxPoint as="offset" />
          </mxGeometry>
        </mxCell>
      </root>
    </mxGraphModel>
  </diagram>
</mxfile>
